<svg data-v-423bf9ae="" xmlns="http://www.w3.org/2000/svg" viewBox="0 0 289.6929659193975 60" class="font"><!----><!----><!----><g data-v-423bf9ae="" id="90f2ec33-f6e9-49d9-a593-84739d5fa103" fill="black" transform="matrix(4.97925329208374,0,0,4.97925329208374,-4.879663467407227,-18.771785736083984)"><path d="M9.18 15.54C9.18 15.69 9.06 15.82 8.92 15.82L1.26 15.82C1.11 15.82 0.98 15.69 0.98 15.54L0.98 4.06C0.98 3.91 1.11 3.78 1.26 3.78L8.64 3.78C8.79 3.78 8.92 3.91 8.92 4.06L8.92 5.70C8.92 5.85 8.79 5.96 8.64 5.96L3.16 5.96L3.16 8.71L8.36 8.71C8.51 8.71 8.64 8.82 8.64 8.97L8.64 10.61C8.64 10.77 8.51 10.89 8.36 10.89L3.16 10.89L3.16 13.62L8.92 13.62C9.06 13.62 9.18 13.75 9.18 13.90ZM18.72 15.37L16.49 11.42L16.18 10.89L16.11 10.77C18.14 10.32 19.19 8.82 19.19 7.35C19.19 6.38 18.75 5.46 17.98 4.82C17.19 4.14 16.09 3.79 14.81 3.79L10.72 3.79C10.57 3.79 10.44 3.92 10.44 4.06L10.44 5.17L10.58 5.42L10.58 5.43L12.45 8.71L10.44 8.71L10.44 15.54C10.44 15.69 10.57 15.82 10.72 15.82L12.36 15.82C12.50 15.82 12.63 15.69 12.63 15.54L12.63 10.89L13.68 10.89L13.97 11.42L16.37 15.65L16.39 15.69C16.44 15.76 16.52 15.82 16.62 15.82L18.49 15.82C18.65 15.82 18.76 15.69 18.76 15.53C18.76 15.48 18.76 15.44 18.73 15.40ZM14.66 8.19L13.41 5.98L14.81 5.98C16.32 5.98 17.00 6.69 17.00 7.35C17.00 7.91 16.49 8.53 15.36 8.68C15.23 8.69 15.09 8.71 14.95 8.71ZM24.42 5.95L24.42 13.61L26.25 13.61C26.45 13.61 26.60 13.73 26.60 13.89L26.60 15.53C26.60 15.68 26.45 15.81 26.25 15.81L20.31 15.81C20.16 15.81 20.03 15.68 20.03 15.53L20.03 13.89C20.03 13.73 20.16 13.61 20.31 13.61L22.22 13.61L22.22 5.95L20.31 5.95C20.16 5.95 20.03 5.84 20.03 5.68L20.03 4.05C20.03 3.89 20.16 3.77 20.31 3.77L26.25 3.77C26.45 3.77 26.60 3.89 26.60 4.05L26.60 5.68C26.60 5.84 26.45 5.95 26.25 5.95ZM36.48 15.53C36.48 15.68 36.37 15.81 36.22 15.81L34.22 15.81C34.13 15.81 34.06 15.78 34.01 15.71L33.99 15.68L30.60 10.92L30.60 15.53C30.60 15.68 30.49 15.81 30.34 15.81L28.70 15.81C28.55 15.81 28.42 15.68 28.42 15.53L28.42 8.69L29.71 8.69L28.45 4.20L28.42 4.09L28.42 4.06C28.42 3.91 28.55 3.78 28.70 3.78L30.41 3.78C30.52 3.78 30.63 3.86 30.66 3.98L31.77 7.92L33.98 3.93C34.03 3.84 34.12 3.78 34.23 3.78L36.09 3.78C36.25 3.78 36.37 3.91 36.37 4.06C36.37 4.10 36.36 4.14 36.34 4.19L36.32 4.23L32.90 10.37L36.41 15.33L36.46 15.37C36.47 15.41 36.48 15.47 36.48 15.53ZM42.25 15.39C42.25 15.62 42.13 15.81 41.97 15.81L40.33 15.81C40.18 15.81 40.07 15.62 40.07 15.39L40.07 5.96L37.59 5.96C37.45 5.96 37.32 5.84 37.32 5.67C37.32 5.63 37.34 5.57 37.35 5.53C37.37 5.53 37.37 5.52 37.37 5.52L38.30 3.92C38.32 3.92 38.32 3.91 38.32 3.91C38.37 3.82 38.46 3.78 38.56 3.78L41.97 3.78C42.06 3.78 42.11 3.81 42.17 3.86C42.22 3.92 42.25 3.98 42.25 4.05ZM51.21 5.91C51.21 5.95 51.21 5.99 51.18 6.03L51.17 6.08L45.65 15.65L45.64 15.69C45.58 15.76 45.50 15.82 45.42 15.82L43.53 15.82C43.37 15.82 43.26 15.69 43.26 15.53C43.26 15.48 43.26 15.43 43.29 15.39L43.30 15.37L48.71 5.96L43.34 5.96C43.20 5.96 43.09 5.84 43.09 5.68C43.09 5.63 43.09 5.59 43.12 5.54L43.13 5.52L44.07 3.93L44.10 3.89C44.14 3.82 44.23 3.78 44.31 3.78L50.88 3.78C51.07 3.78 51.21 3.91 51.21 4.06ZM58.88 15.54C58.88 15.69 58.76 15.81 58.62 15.81L52.33 15.81C52.18 15.81 52.05 15.68 52.05 15.53L52.05 13.78C52.05 13.71 52.08 13.64 52.12 13.59L52.12 13.58L56.64 8.22L56.67 8.19C56.85 7.95 56.98 7.66 56.98 7.32C56.98 6.58 56.36 5.96 55.61 5.96C54.94 5.96 54.38 6.44 54.26 7.08C54.24 7.22 54.14 7.32 54.01 7.32L52.32 7.32C52.18 7.32 52.07 7.20 52.07 7.04L52.07 6.99C52.23 5.18 53.76 3.78 55.61 3.78C56.98 3.78 58.18 4.55 58.77 5.70C59.02 6.19 59.16 6.75 59.16 7.32C59.16 8.18 58.87 8.95 58.38 9.56L58.25 9.70L54.95 13.62L58.63 13.62C58.77 13.62 58.88 13.75 58.88 13.89Z"></path></g><!----><!----></svg>